<?xml version="1.0" standalone="no"?>
<!DOCTYPE svg PUBLIC "-//W3C//DTD SVG 20010904//EN"
 "http://www.w3.org/TR/2001/REC-SVG-20010904/DTD/svg10.dtd">
<svg version="1.0" xmlns="http://www.w3.org/2000/svg"
 width="768.000000pt" height="768.000000pt" viewBox="0 0 768.000000 768.000000"
 preserveAspectRatio="xMidYMid meet">
<metadata>
Created by potrace 1.14, written by Peter Selinger 2001-2017
</metadata>
<g transform="translate(0.000000,768.000000) scale(0.100000,-0.100000)"
fill="#000000" stroke="none">
<path d="M2132 6466 c-11 -28 -39 -103 -62 -166 -24 -63 -48 -128 -55 -145 -7
-16 -31 -79 -53 -140 -23 -60 -68 -182 -102 -269 -33 -88 -60 -166 -60 -173 0
-7 -5 -13 -12 -13 -6 0 -9 -3 -6 -6 4 -3 -7 -37 -22 -75 -16 -38 -26 -69 -23
-69 3 0 1 -6 -4 -12 -6 -7 -16 -31 -23 -53 -7 -22 -18 -53 -26 -70 -20 -46
-104 -271 -104 -280 0 -4 -7 -21 -15 -38 -14 -32 -65 -163 -69 -182 -2 -5 -7
-21 -13 -35 -6 -14 -26 -68 -46 -120 -19 -52 -41 -108 -48 -125 -6 -16 -13
-35 -14 -40 -3 -13 -122 -332 -135 -360 -5 -11 -18 -47 -30 -80 -11 -33 -25
-69 -30 -80 -5 -11 -28 -72 -51 -135 -22 -63 -47 -128 -54 -145 -7 -16 -20
-50 -28 -75 -9 -25 -22 -58 -28 -75 -7 -16 -13 -32 -13 -35 -3 -10 -58 -156
-71 -185 -7 -16 -16 -41 -20 -55 -4 -14 -13 -38 -20 -55 -18 -43 -82 -215 -90
-245 -4 -14 -11 -29 -15 -35 -4 -5 -17 -39 -30 -75 -13 -36 -28 -76 -33 -90
-6 -14 -11 -29 -13 -35 -1 -5 -46 -125 -99 -265 -54 -140 -98 -259 -99 -265
-2 -5 -7 -21 -13 -35 -6 -14 -18 -43 -26 -65 -8 -22 -26 -67 -38 -100 -13 -33
-24 -62 -25 -65 -1 -6 -8 -24 -37 -100 -12 -30 -22 -57 -23 -60 -1 -5 -8 -25
-29 -80 -34 -87 -50 -136 -47 -142 1 -5 -3 -8 -8 -8 -6 0 -10 -6 -10 -14 0 -7
-9 -35 -19 -62 -104 -264 -110 -284 -87 -285 117 -4 1785 -1 1793 4 6 4 14 19
17 34 9 39 70 247 97 331 6 18 13 44 15 59 3 14 9 34 14 44 6 10 10 27 10 38
0 12 4 21 8 21 4 0 9 10 10 23 1 12 18 74 37 137 20 63 38 123 40 133 2 9 6
21 10 26 3 6 343 10 854 9 l849 0 10 -23 c9 -19 26 -74 38 -117 1 -5 3 -10 4
-13 1 -3 3 -8 4 -12 2 -5 9 -28 16 -53 7 -25 14 -47 15 -50 7 -27 30 -103 41
-135 18 -55 76 -246 78 -259 2 -6 15 -53 31 -103 26 -86 30 -93 54 -94 34 -1
1789 -1 1819 0 18 1 20 4 12 19 -5 9 -19 40 -30 69 l-19 52 57 16 c31 9 86 26
122 38 36 11 67 22 70 22 3 1 18 7 33 13 16 7 30 12 33 12 28 0 381 200 404
229 3 3 28 24 55 45 69 55 197 186 248 254 23 31 44 59 47 62 12 12 50 70 50
76 0 4 6 15 14 23 31 36 150 287 161 340 2 9 11 38 20 65 9 26 18 58 21 70 2
11 6 32 9 46 2 14 7 40 10 58 3 17 7 45 10 62 3 16 7 62 10 101 3 39 7 75 10
80 4 5 3 9 -2 9 -4 0 -9 44 -9 98 -2 130 -9 185 -39 302 -22 87 -51 174 -76
221 -10 22 -17 39 -14 39 4 0 -3 13 -14 29 -12 16 -21 32 -21 35 0 7 -80 139
-89 146 -3 3 -19 23 -35 45 -50 68 -201 209 -296 276 -115 81 -158 107 -300
176 -129 62 -134 64 -210 93 -30 11 -64 25 -75 30 -75 33 -596 186 -704 207
-14 2 -27 6 -31 8 -5 3 -200 50 -254 61 -97 19 -314 70 -410 97 -101 27 -120
36 -132 58 -13 25 -42 103 -47 124 -2 6 -6 15 -10 22 -4 7 -14 32 -22 55 -7
24 -36 103 -64 177 -28 73 -51 137 -51 142 0 13 67 71 110 96 39 22 120 53
155 59 147 24 295 24 430 -2 63 -12 162 -50 219 -85 111 -67 181 -146 244
-276 30 -62 78 -222 81 -270 1 -6 11 -10 24 -8 20 4 127 11 305 20 34 2 106 6
160 9 123 8 243 15 352 21 122 7 276 16 340 20 30 1 109 6 175 10 66 4 124 9
128 12 5 3 6 17 3 31 -3 15 -8 43 -10 62 -7 49 -24 136 -37 184 -6 23 -12 48
-14 57 -9 48 -72 214 -110 295 -84 175 -213 347 -332 444 -10 8 -32 26 -49 40
-77 63 -136 100 -260 162 -95 47 -187 87 -219 94 -5 2 -57 17 -114 34 -57 16
-115 32 -128 35 -33 7 -75 15 -98 19 -11 2 -31 7 -45 10 -32 7 -95 17 -145 22
-22 2 -56 6 -75 8 -209 26 -850 27 -974 1 -12 -2 -46 -6 -76 -9 -30 -3 -64 -7
-75 -10 -11 -2 -45 -7 -75 -12 -70 -11 -74 -11 -80 -14 -7 -2 -30 -7 -70 -14
-19 -4 -51 -11 -70 -16 -19 -6 -40 -10 -46 -10 -10 0 -57 109 -59 135 0 7
-320 10 -936 11 l-936 2 -21 -52z m983 -1812 c26 -82 48 -156 50 -165 3 -14
37 -124 53 -169 3 -8 6 -20 8 -27 1 -7 21 -72 43 -145 38 -121 86 -278 113
-368 6 -19 13 -42 16 -50 7 -22 11 -33 15 -50 2 -8 6 -22 9 -30 3 -8 11 -35
19 -60 7 -25 15 -49 18 -55 3 -5 7 -19 8 -30 2 -11 7 -29 12 -40 7 -17 20 -59
47 -155 3 -14 -49 -15 -456 -15 -307 0 -460 3 -460 10 0 6 5 26 11 45 5 19 12
42 14 50 2 8 9 29 15 45 6 17 13 37 15 45 2 8 19 69 40 135 20 66 49 163 65
215 15 52 35 118 44 145 8 28 16 51 16 52 0 2 2 8 4 15 3 7 18 58 35 113 44
148 99 328 130 430 15 50 36 118 47 152 10 34 20 61 21 59 1 -1 23 -69 48
-152z m2201 -1410 c38 -14 74 -27 79 -28 6 -1 50 -21 100 -45 82 -38 178 -105
198 -138 5 -7 17 -21 27 -31 17 -16 91 -146 89 -157 0 -3 3 -19 6 -37 15 -67
8 -172 -15 -234 -6 -16 -11 -30 -10 -32 0 -1 -15 -27 -35 -57 -31 -49 -141
-165 -155 -165 -3 0 -12 17 -19 38 -7 20 -16 46 -21 57 -4 11 -22 58 -40 105
-18 47 -36 94 -40 105 -4 11 -18 47 -30 80 -12 33 -26 69 -30 80 -4 11 -17 46
-29 78 -12 31 -30 83 -42 115 -12 31 -25 66 -30 77 -29 67 -80 215 -74 215 1
0 34 -12 71 -26z"/>
</g>
</svg>
