<?xml version="1.0" encoding="utf-8"?>
<!-- Generator: Adobe Illustrator 25.1.0, SVG Export Plug-In . SVG Version: 6.00 Build 0)  -->
<svg version="1.2" baseProfile="tiny" id="Слой_2"
	 xmlns="http://www.w3.org/2000/svg" xmlns:xlink="http://www.w3.org/1999/xlink" x="0px" y="0px" viewBox="0 0 697.24 527.6"
	 overflow="visible" xml:space="preserve">
<g>
	<path fill="#F2F2F2" d="M677.21,358.94c0,30.88-8.26,57.76-24.78,80.65c-16.52,22.89-39.68,39.95-69.47,51.17
		c-29.8,11.22-65.64,16.84-107.53,16.84c-48.58,0-93.07-8.2-133.44-24.61V355.7c19.43,14.25,40.92,25.75,64.45,34.49
		c23.53,8.74,45.45,13.12,65.75,13.12c15.33,0,27.21-2.75,35.63-8.26c8.42-5.51,12.63-13.55,12.63-24.13
		c0-7.56-2.11-14.2-6.32-19.92c-4.21-5.72-10.58-11.06-19.11-16.03c-8.53-4.97-24.34-11.77-47.45-20.4
		c-74.71-28.71-112.06-75.14-112.06-139.27c0-44.91,17.05-80.81,51.17-107.69c34.12-26.88,79.89-40.32,137.32-40.32
		c16.19,0,31.09,0.65,44.7,1.94s25.96,2.91,37.08,4.86c11.12,1.94,26.72,5.62,46.8,11.01v118.22
		c-39.08-21.38-77.52-32.06-115.3-32.06c-15.55,0-28.07,2.91-37.57,8.74c-9.5,5.83-14.25,13.82-14.25,23.97
		c0,9.72,3.83,17.76,11.5,24.13c7.66,6.37,23.69,14.63,48.1,24.78c48.15,19.43,82.21,40.7,102.18,63.8
		C667.22,299.78,677.21,327.2,677.21,358.94z"/>
</g>
<g>
	<path fill="#121212" d="M338.84,507.18l-20.4-85.5H179.82l-22.02,85.5H6.54l160-464.44h173.6l150.6,464.44H338.84z M250.75,143.79
		h-3.24c-0.44,5.18-1.94,13.72-4.53,25.59c-2.59,11.88-15.66,62.83-39.19,152.87h88.74l-32.39-126.31
		C255.61,177.36,252.48,159.98,250.75,143.79z"/>
</g>
</svg>
